<svg xmlns="http://www.w3.org/2000/svg" viewBox="0 0 48 48" role="img" aria-label="Google">
  <path fill="#ffc107" d="M43.6 20.5H42V20H24v8h11.3C33.7 32.7 29.2 36 24 36c-6.6 0-12-5.4-12-12s5.4-12 12-12c3.1 0 5.9 1.2 8 3.1l5.7-5.7C34.1 6.1 29.3 4 24 4 13 4 4 13 4 24s9 20 20 20 20-9 20-20c0-1.3-.1-2.7-.4-3.5Z"/>
  <path fill="#ff3d00" d="m6.3 14.7 6.6 4.8C14.7 16.2 19 14 24 14c3.1 0 5.9 1.2 8 3.1l5.7-5.7C34.1 8.1 29.3 6 24 6 16.3 6 9.6 10.3 6.3 14.7Z"/>
  <path fill="#4caf50" d="M24 42c5.2 0 10-2 13.6-5.3l-6.3-5.2C29.3 33 26.8 34 24 34c-5.2 0-9.6-3.3-11.2-7.9l-6.5 5C9.5 37.5 16.2 42 24 42Z"/>
  <path fill="#1976d2" d="M43.6 20.5H42V20H24v8h11.3c-1.1 3-3 5.3-5.9 6.8l.1.1 6.3 4.9C32.5 42.7 44 39 44 24c0-1.3-.1-2.7-.4-3.5Z"/>
</svg>
